<svg width="20" height="21" viewBox="0 0 20 21" fill="none" xmlns="http://www.w3.org/2000/svg">
    <path
        d="M17.5 14.0417H12.5C12.1583 14.0417 11.875 13.7583 11.875 13.4167C11.875 13.075 12.1583 12.7917 12.5 12.7917H17.5C17.8417 12.7917 18.125 13.075 18.125 13.4167C18.125 13.7583 17.8417 14.0417 17.5 14.0417Z"
        fill="#E2E3E9" stroke="currentColor" />
    <path
        d="M17.5 17.375H12.5C12.1583 17.375 11.875 17.0917 11.875 16.75C11.875 16.4083 12.1583 16.125 12.5 16.125H17.5C17.8417 16.125 18.125 16.4083 18.125 16.75C18.125 17.0917 17.8417 17.375 17.5 17.375Z"
        fill="#E2E3E9" stroke="currentColor" />
    <path
        d="M18.3333 7.60001V3.81667C18.3333 2.64167 17.8 2.16667 16.475 2.16667H13.1083C11.7833 2.16667 11.25 2.64167 11.25 3.81667V7.59167C11.25 8.775 11.7833 9.24167 13.1083 9.24167H16.475C17.8 9.25 18.3333 8.77501 18.3333 7.60001Z"
        fill="#E2E3E9" stroke="currentColor" />
    <path
        d="M8.74996 7.60001V3.81667C8.74996 2.64167 8.21663 2.16667 6.89163 2.16667H3.52496C2.19996 2.16667 1.66663 2.64167 1.66663 3.81667V7.59167C1.66663 8.775 2.19996 9.24167 3.52496 9.24167H6.89163C8.21663 9.25 8.74996 8.77501 8.74996 7.60001Z"
        fill="#E2E3E9" stroke="currentColor" />
    <path
        d="M8.74996 16.975V13.6083C8.74996 12.2833 8.21663 11.75 6.89163 11.75H3.52496C2.19996 11.75 1.66663 12.2833 1.66663 13.6083V16.975C1.66663 18.3 2.19996 18.8333 3.52496 18.8333H6.89163C8.21663 18.8333 8.74996 18.3 8.74996 16.975Z"
        fill="#E2E3E9" stroke="currentColor" />
</svg>