<svg width="26" height="26" viewBox="0 0 26 26" fill="none" xmlns="http://www.w3.org/2000/svg">
    <path
        d="M13 5.41699C16.9855 5.41699 21.8421 8.03541 23.5408 11.8097C23.699 12.1651 23.8333 12.5789 23.8333 13.0003C23.8333 13.4207 23.7 13.8356 23.5408 14.1909C21.841 17.9652 16.9845 20.5837 13 20.5837C9.01438 20.5837 4.15779 17.9652 2.45913 14.1909C2.30096 13.8345 2.16663 13.4217 2.16663 13.0003C2.16663 12.58 2.29988 12.1651 2.45913 11.8097C4.15888 8.03541 9.01546 5.41699 13 5.41699ZM13 8.66699C11.8507 8.66699 10.7485 9.12354 9.93583 9.9362C9.12317 10.7489 8.66663 11.8511 8.66663 13.0003C8.66663 14.1496 9.12317 15.2518 9.93583 16.0645C10.7485 16.8771 11.8507 17.3337 13 17.3337C14.1492 17.3337 15.2514 16.8771 16.0641 16.0645C16.8767 15.2518 17.3333 14.1496 17.3333 13.0003C17.3333 11.8511 16.8767 10.7489 16.0641 9.9362C15.2514 9.12354 14.1492 8.66699 13 8.66699ZM13 10.8337C13.5746 10.8337 14.1257 11.0619 14.532 11.4683C14.9384 11.8746 15.1666 12.4257 15.1666 13.0003C15.1666 13.575 14.9384 14.1261 14.532 14.5324C14.1257 14.9387 13.5746 15.167 13 15.167C12.4253 15.167 11.8742 14.9387 11.4679 14.5324C11.0616 14.1261 10.8333 13.575 10.8333 13.0003C10.8333 12.4257 11.0616 11.8746 11.4679 11.4683C11.8742 11.0619 12.4253 10.8337 13 10.8337Z"
        fill="#2C2F3A" />
</svg>