<svg width="26" height="26" viewBox="0 0 26 26" fill="none" xmlns="http://www.w3.org/2000/svg">
    <path
        d="M6.50004 4C5.9254 4 5.3743 4.21071 4.96798 4.58579C4.56165 4.96086 4.33337 5.46957 4.33337 6V22C4.33337 22.2652 4.44751 22.5196 4.65068 22.7071C4.85384 22.8946 5.12939 23 5.41671 23C5.70403 23 5.97957 22.8946 6.18274 22.7071C6.3859 22.5196 6.50004 22.2652 6.50004 22V17H21.4544C21.6742 17.0001 21.8898 16.944 22.0773 16.838C22.2648 16.732 22.4168 16.5802 22.5166 16.3993C22.6164 16.2185 22.6601 16.0157 22.6428 15.8134C22.6255 15.6111 22.5479 15.4171 22.4185 15.253L18.6724 10.5L22.4164 5.747C22.5456 5.58294 22.6232 5.38908 22.6406 5.18686C22.6579 4.98463 22.6144 4.78192 22.5147 4.60112C22.415 4.42032 22.2631 4.26849 22.0758 4.1624C21.8885 4.05632 21.6731 4.00011 21.4533 4H6.50004Z"
        fill="#595D73" />
</svg>