<svg width="20" height="20" viewBox="0 0 20 20" fill="none" xmlns="http://www.w3.org/2000/svg">
    <path
        d="M9.9998 11.6667C5.8248 11.6667 2.4248 14.4667 2.4248 17.9167C2.4248 18.15 2.60814 18.3334 2.84147 18.3334H17.1581C17.3915 18.3334 17.5748 18.15 17.5748 17.9167C17.5748 14.4667 14.1748 11.6667 9.9998 11.6667Z"
        fill="#E2E3E9" stroke="currentColor"  />
    <path
        d="M13.0913 3.05002C12.3413 2.20002 11.2247 1.66669 9.99967 1.66669C8.83301 1.66669 7.76634 2.14169 7.00801 2.92502C6.28301 3.67502 5.83301 4.70835 5.83301 5.83335C5.83301 6.61669 6.04967 7.35002 6.44134 7.97502C6.64967 8.33335 6.91634 8.65835 7.23301 8.92502C7.95801 9.59169 8.92467 10 9.99967 10C11.5247 10 12.8413 9.18335 13.5663 7.97502C13.783 7.61669 13.9497 7.21669 14.0413 6.80002C14.1247 6.49169 14.1663 6.16669 14.1663 5.83335C14.1663 4.76669 13.758 3.79169 13.0913 3.05002ZM11.558 6.60002H8.44134C8.00801 6.60002 7.65801 6.25002 7.65801 5.81669C7.65801 5.38335 8.00801 5.03335 8.44134 5.03335H11.558C11.9913 5.03335 12.3413 5.38335 12.3413 5.81669C12.3413 6.25002 11.9913 6.60002 11.558 6.60002Z"
        fill="#E2E3E9" stroke="currentColor"  />
</svg>