<svg width="20" height="20" viewBox="0 0 20 20" fill="none" xmlns="http://www.w3.org/2000/svg">
    <path
        d="M13.4915 1.66669H6.50817C3.47484 1.66669 1.6665 3.47502 1.6665 6.50835V13.4834C1.6665 16.525 3.47484 18.3334 6.50817 18.3334H13.4832C16.5165 18.3334 18.3248 16.525 18.3248 13.4917V6.50835C18.3332 3.47502 16.5248 1.66669 13.4915 1.66669ZM6.45817 7.61669C6.45817 6.94169 7.00817 6.38335 7.6915 6.38335C8.3665 6.38335 8.92484 6.93335 8.92484 7.61669C8.92484 8.29169 8.37484 8.85002 7.6915 8.85002C7.00817 8.84169 6.45817 8.29169 6.45817 7.61669ZM7.34984 13.35C7.1915 13.35 7.03317 13.2917 6.90817 13.1667C6.6665 12.925 6.6665 12.5334 6.90817 12.2834L12.3665 6.82502C12.6082 6.58335 13.0082 6.58335 13.2498 6.82502C13.4915 7.06669 13.4915 7.46669 13.2498 7.70835L7.7915 13.1667C7.6665 13.2917 7.50817 13.35 7.34984 13.35ZM13.1415 13.6167C12.4665 13.6167 11.9082 13.0667 11.9082 12.3834C11.9082 11.7084 12.4582 11.15 13.1415 11.15C13.8165 11.15 14.3748 11.7 14.3748 12.3834C14.3748 13.0667 13.8248 13.6167 13.1415 13.6167Z"
        fill="#E2E3E9" stroke="currentColor" />
</svg>