<svg width="34" height="34" viewBox="0 0 34 34" fill="none" xmlns="http://www.w3.org/2000/svg">
    <rect width="34" height="34" rx="17" fill="#14151A" />
    <path
        d="M17 17.6248C14.3583 17.6248 12.2083 15.4748 12.2083 12.8332C12.2083 10.1915 14.3583 8.0415 17 8.0415C19.6416 8.0415 21.7916 10.1915 21.7916 12.8332C21.7916 15.4748 19.6416 17.6248 17 17.6248ZM17 9.2915C15.05 9.2915 13.4583 10.8832 13.4583 12.8332C13.4583 14.7832 15.05 16.3748 17 16.3748C18.95 16.3748 20.5416 14.7832 20.5416 12.8332C20.5416 10.8832 18.95 9.2915 17 9.2915Z"
        fill="#A9ACBC" />
    <path
        d="M24.1585 25.9583C23.8168 25.9583 23.5335 25.675 23.5335 25.3333C23.5335 22.4583 20.6001 20.125 17.0001 20.125C13.4001 20.125 10.4668 22.4583 10.4668 25.3333C10.4668 25.675 10.1835 25.9583 9.8418 25.9583C9.50013 25.9583 9.2168 25.675 9.2168 25.3333C9.2168 21.775 12.7085 18.875 17.0001 18.875C21.2918 18.875 24.7835 21.775 24.7835 25.3333C24.7835 25.675 24.5001 25.9583 24.1585 25.9583Z"
        fill="#A9ACBC" />
</svg>