<svg width="20" height="21" viewBox="0 0 20 21" fill="none" xmlns="http://www.w3.org/2000/svg">
    <path
        d="M15 2.16666H5C3.61667 2.16666 2.5 3.27499 2.5 4.64166V13.7333C2.5 15.1 3.61667 16.2083 5 16.2083H5.63333C6.3 16.2083 6.93333 16.4667 7.4 16.9333L8.825 18.3417C9.475 18.9833 10.5333 18.9833 11.1833 18.3417L12.6083 16.9333C13.075 16.4667 13.7167 16.2083 14.375 16.2083H15C16.3833 16.2083 17.5 15.1 17.5 13.7333V4.64166C17.5 3.27499 16.3833 2.16666 15 2.16666ZM13.9 9.24999L12.925 12.2167C12.8 12.7083 12.275 13.1083 11.7417 13.1083H10.2C9.93333 13.1083 9.55833 13.0167 9.39167 12.85L8.16667 11.8917C8.14167 12.425 7.9 12.65 7.30833 12.65H6.90833C6.29167 12.65 6.04167 12.4083 6.04167 11.825V7.84999C6.04167 7.26666 6.29167 7.02499 6.90833 7.02499H7.31667C7.93333 7.02499 8.18333 7.26666 8.18333 7.84999V8.14999L9.8 5.74999C9.96667 5.49166 10.3917 5.30832 10.75 5.44999C11.1417 5.58332 11.3917 6.01666 11.3083 6.39999L11.1083 7.69999C11.0833 7.80832 11.1083 7.92499 11.1833 7.99999C11.25 8.07499 11.35 8.12499 11.4583 8.12499H13.0833C13.4 8.12499 13.6667 8.24999 13.825 8.47499C13.975 8.69166 14 8.96666 13.9 9.24999Z"
        fill="#E2E3E9" stroke="currentColor" />
</svg>