<svg width="20" height="21" viewBox="0 0 20 21" fill="none" xmlns="http://www.w3.org/2000/svg">
    <path
        d="M16.2581 5.37499L11.3081 2.51666C10.4998 2.04999 9.49977 2.04999 8.68311 2.51666L3.74144 5.37499C2.93311 5.84166 2.43311 6.70832 2.43311 7.64999V13.35C2.43311 14.2833 2.93311 15.15 3.74144 15.625L8.69144 18.4833C9.49977 18.95 10.4998 18.95 11.3164 18.4833L16.2664 15.625C17.0748 15.1583 17.5748 14.2917 17.5748 13.35V7.64999C17.5664 6.70832 17.0664 5.84999 16.2581 5.37499ZM9.99977 6.61666C11.0748 6.61666 11.9414 7.48332 11.9414 8.55832C11.9414 9.63332 11.0748 10.5 9.99977 10.5C8.92477 10.5 8.05811 9.63332 8.05811 8.55832C8.05811 7.49166 8.92477 6.61666 9.99977 6.61666ZM12.2331 14.3833H7.76644C7.09144 14.3833 6.69977 13.6333 7.07477 13.075C7.64144 12.2333 8.74144 11.6667 9.99977 11.6667C11.2581 11.6667 12.3581 12.2333 12.9248 13.075C13.2998 13.625 12.8998 14.3833 12.2331 14.3833Z"
        fill="#E2E3E9"  stroke="currentColor"  />
</svg>