<svg width="20" height="20" viewBox="0 0 20 20" fill="none" xmlns="http://www.w3.org/2000/svg">
    <path
        d="M17.7499 6.31669H13.0999C12.7749 6.31669 12.5166 6.05836 12.5166 5.73336C12.5166 5.40836 12.7749 5.15002 13.0999 5.15002H17.7499C18.0749 5.15002 18.3333 5.40836 18.3333 5.73336C18.3333 6.05836 18.0749 6.31669 17.7499 6.31669Z"
        fill="#E2E3E9" stroke="currentColor" />
    <path
        d="M5.34984 6.31669H2.24984C1.92484 6.31669 1.6665 6.05836 1.6665 5.73336C1.6665 5.40836 1.92484 5.15002 2.24984 5.15002H5.34984C5.67484 5.15002 5.93317 5.40836 5.93317 5.73336C5.93317 6.05836 5.6665 6.31669 5.34984 6.31669Z"
        fill="#E2E3E9" stroke="currentColor" />
    <path
        d="M8.44987 9.02498C10.2678 9.02498 11.7415 7.55125 11.7415 5.73332C11.7415 3.91538 10.2678 2.44165 8.44987 2.44165C6.63193 2.44165 5.1582 3.91538 5.1582 5.73332C5.1582 7.55125 6.63193 9.02498 8.44987 9.02498Z"
        fill="#E2E3E9" stroke="currentColor" />
    <path
        d="M17.7502 14.8417H14.6502C14.3252 14.8417 14.0669 14.5833 14.0669 14.2583C14.0669 13.9333 14.3252 13.675 14.6502 13.675H17.7502C18.0752 13.675 18.3336 13.9333 18.3336 14.2583C18.3336 14.5833 18.0752 14.8417 17.7502 14.8417Z"
        fill="#E2E3E9" stroke="currentColor" />
    <path
        d="M6.89984 14.8417H2.24984C1.92484 14.8417 1.6665 14.5833 1.6665 14.2583C1.6665 13.9333 1.92484 13.675 2.24984 13.675H6.89984C7.22484 13.675 7.48317 13.9333 7.48317 14.2583C7.48317 14.5833 7.2165 14.8417 6.89984 14.8417Z"
        fill="#E2E3E9" stroke="currentColor" />
    <path
        d="M11.55 17.5583C13.3679 17.5583 14.8416 16.0846 14.8416 14.2666C14.8416 12.4487 13.3679 10.975 11.55 10.975C9.73203 10.975 8.2583 12.4487 8.2583 14.2666C8.2583 16.0846 9.73203 17.5583 11.55 17.5583Z"
        fill="#E2E3E9" stroke="currentColor" />
</svg>