<svg width="20" height="21" viewBox="0 0 20 21" fill="none" xmlns="http://www.w3.org/2000/svg">
    <path
        d="M13.4915 2.16663H6.50817C3.47484 2.16663 1.6665 3.97496 1.6665 7.00829V13.9833C1.6665 17.025 3.47484 18.8333 6.50817 18.8333H13.4832C16.5165 18.8333 18.3248 17.025 18.3248 13.9916V7.00829C18.3332 3.97496 16.5248 2.16663 13.4915 2.16663ZM14.3832 8.79996L12.4582 11.2833C12.2165 11.5916 11.8748 11.7916 11.4832 11.8333C11.0915 11.8833 10.7082 11.775 10.3998 11.5333L8.87484 10.3333C8.8165 10.2833 8.74984 10.2833 8.7165 10.2916C8.68317 10.2916 8.62484 10.3083 8.57484 10.375L6.5915 12.95C6.4665 13.1083 6.28317 13.1916 6.09984 13.1916C5.9665 13.1916 5.83317 13.15 5.7165 13.0583C5.4415 12.85 5.3915 12.4583 5.59984 12.1833L7.58317 9.60829C7.82484 9.29996 8.1665 9.09996 8.55817 9.04996C8.9415 8.99996 9.33317 9.10829 9.6415 9.34996L11.1665 10.55C11.2248 10.6 11.2832 10.6 11.3248 10.5916C11.3582 10.5916 11.4165 10.575 11.4665 10.5083L13.3915 8.02496C13.5998 7.74996 13.9998 7.69996 14.2665 7.91662C14.5415 8.14162 14.5915 8.53329 14.3832 8.79996Z"
        fill="#E2E3E9" stroke="currentColor" />
</svg>