<svg width="26" height="26" viewBox="0 0 26 26" fill="none" xmlns="http://www.w3.org/2000/svg">
    <path
        d="M17.0217 18.1708L7.82928 8.97846C7.51521 8.66438 7.51521 8.14348 7.82928 7.82941C8.14336 7.51533 8.66426 7.51533 8.97833 7.82941L18.1707 17.0218C18.4848 17.3359 18.4848 17.8568 18.1707 18.1708C17.8566 18.4849 17.3357 18.4849 17.0217 18.1708Z"
        fill="#2C2F3A" />
    <path
        d="M7.82928 18.1708C7.51521 17.8568 7.51521 17.3359 7.82928 17.0218L17.0217 7.82941C17.3357 7.51533 17.8566 7.51533 18.1707 7.82941C18.4848 8.14348 18.4848 8.66438 18.1707 8.97846L8.97833 18.1708C8.66425 18.4849 8.14335 18.4849 7.82928 18.1708Z"
        fill="#2C2F3A" />
</svg>