<svg width="52" height="51" viewBox="0 0 52 51" fill="none" xmlns="http://www.w3.org/2000/svg">
    <rect y="3" width="48" height="48" rx="12" fill="#14151A" />
    <path
        d="M35.4667 16.4667V19.4C35.4667 20.4667 34.8 21.8 34.1333 22.4667L28.4 27.5334C27.6 28.2 27.0667 29.5334 27.0667 30.6V36.3334C27.0667 37.1334 26.5333 38.2001 25.8667 38.6L24 39.8C22.2667 40.8667 19.8667 39.6667 19.8667 37.5334V30.4667C19.8667 29.5334 19.3333 28.3334 18.8 27.6667L18.1733 27.0134C17.76 26.5734 17.68 25.9067 18.0133 25.3867L24.84 14.4267C25.08 14.04 25.5067 13.8 25.9733 13.8H32.8C34.2667 13.8 35.4667 15 35.4667 16.4667Z"
        fill="#E2E3E9" stroke="currentColor" />
    <path
        d="M21.8 15.84L17.0667 23.4267C16.6133 24.16 15.5733 24.2667 14.9733 23.64L13.7333 22.3334C13.0667 21.6667 12.5333 20.4667 12.5333 19.6667V16.6C12.5333 15 13.7333 13.8 15.2 13.8H20.6667C21.7067 13.8 22.3467 14.9467 21.8 15.84Z"
        fill="#E2E3E9" stroke="currentColor" />
    <circle cx="44" cy="8" r="7" fill="#595D73" stroke="#E2E3E9" stroke-width="2" />
</svg>