<svg width="24" height="25" viewBox="0 0 24 25" fill="none" xmlns="http://www.w3.org/2000/svg">
    <path
        d="M16.19 2.5H7.81C4.17 2.5 2 4.67 2 8.31V16.68C2 20.33 4.17 22.5 7.81 22.5H16.18C19.82 22.5 21.99 20.33 21.99 16.69V8.31C22 4.67 19.83 2.5 16.19 2.5ZM11.53 14.03L7.81 17.75H10C10.41 17.75 10.75 18.09 10.75 18.5C10.75 18.91 10.41 19.25 10 19.25H6C5.9 19.25 5.8 19.23 5.71 19.19C5.53 19.11 5.38 18.97 5.3 18.78C5.27 18.69 5.25 18.6 5.25 18.5V14.5C5.25 14.09 5.59 13.75 6 13.75C6.41 13.75 6.75 14.09 6.75 14.5V16.69L10.47 12.97C10.76 12.68 11.24 12.68 11.53 12.97C11.82 13.26 11.82 13.74 11.53 14.03ZM18.75 10.5C18.75 10.91 18.41 11.25 18 11.25C17.59 11.25 17.25 10.91 17.25 10.5V8.31L13.53 12.03C13.38 12.18 13.19 12.25 13 12.25C12.81 12.25 12.62 12.18 12.47 12.03C12.18 11.74 12.18 11.26 12.47 10.97L16.19 7.25H14C13.59 7.25 13.25 6.91 13.25 6.5C13.25 6.09 13.59 5.75 14 5.75H18C18.1 5.75 18.19 5.77 18.29 5.81C18.47 5.89 18.62 6.03 18.7 6.22C18.73 6.31 18.75 6.4 18.75 6.5V10.5Z"
        fill="#E2E3E9" />
</svg>