<svg width="75" height="67" viewBox="0 0 75 67" fill="none" xmlns="http://www.w3.org/2000/svg">
    <g clip-path="url(#clip0_2_4)">
        <path
            d="M0.0128784 4.44605H30.9313C32.5406 3.03633 34.2214 2.09078 35.9179 1.69467L0.0128784 4.44605Z"
            fill="#14151A" />
        <path
            d="M26.2412 10.1956C26.7719 9.33444 27.3209 8.52708 27.8853 7.77817L2.17371 10.1956H26.2412Z"
            fill="#14151A" />
        <path
            d="M7.88214 14.694L23.5659 15.3597C23.8695 14.6639 24.1839 13.9884 24.5079 13.3346L7.88214 14.694Z"
            fill="#14151A" />
        <path fill-rule="evenodd" clip-rule="evenodd"
            d="M30.8896 65.4113L30.007 65.3422C30.301 65.3831 30.5953 65.406 30.8896 65.4113Z"
            fill="#14151A" />
        <path
            d="M25.2336 62.8541L0.0128784 61.8602L30.007 65.3422C27.921 64.9341 25.9557 63.5133 25.2336 62.8541Z"
            fill="#14151A" />
        <path
            d="M2.17377 57.303L22.6635 59.425C22.2895 58.7636 21.9385 58.0551 21.6118 57.303H2.17377Z"
            fill="#14151A" />
        <path
            d="M7.88214 53.9078L20.6832 54.8536C20.4917 54.2724 20.3125 53.6724 20.1461 53.0544L10.282 53.6888L7.88214 53.9078Z"
            fill="#14151A" />
        <path fill-rule="evenodd" clip-rule="evenodd"
            d="M55.5959 0.0117493L38.1813 1.49941C43.2653 1.1344 53.1708 7.13384 50.0353 35.2497C48.5685 45.9797 44.8023 55.3978 40.1542 60.6436C37.44 63.7071 33.8715 65.4662 30.8896 65.4112L49.4656 66.8645C60.768 68.4321 71.9674 54.8037 74.4799 36.4242C76.9924 18.045 69.8593 1.83707 58.5569 0.269401C58.2548 0.227495 58.0037 0.164802 57.7211 0.135144C56.9829 0.0576769 56.4548 0.0117493 55.5959 0.0117493ZM54.532 12.1539C57.1611 26.6165 57.5714 40.1928 49.4672 54.8107C53.9522 44.9354 55.54 21.7631 54.532 12.1539ZM59.1737 12.1539C61.8029 26.6166 62.2131 40.1928 54.1089 54.8107C58.594 44.9354 60.1817 21.7631 59.1737 12.1539ZM63.8154 12.1539C66.4446 26.6165 66.8548 40.1928 58.7506 54.8107C63.2357 44.9354 64.8234 21.7631 63.8154 12.1539ZM68.4571 12.1539C71.0863 26.6166 71.4966 40.1928 63.3924 54.8107C67.8774 44.9354 69.4652 21.7631 68.4571 12.1539Z"
            fill="#14151A" />
        <path fill-rule="evenodd" clip-rule="evenodd"
            d="M48.6467 35.4607C46.182 52.5817 37.8858 65.5409 30.1165 64.4061C22.3474 63.2712 18.0473 48.4721 20.5121 31.3512C22.9769 14.2303 31.2731 1.27107 39.0423 2.40589C46.8114 3.54071 51.1117 18.3399 48.6467 35.4607ZM30.8762 59.1302C24.4293 58.1885 20.861 45.9079 22.9062 31.701C24.9516 17.4939 31.8359 6.74018 38.2828 7.68188C44.7298 8.62356 48.298 20.904 46.2527 35.1111C44.2073 49.3182 37.3232 60.0718 30.8762 59.1302Z"
            fill="#14151A" />
        <path fill-rule="evenodd" clip-rule="evenodd"
            d="M23.4488 36.1194C23.608 33.3782 23.9658 30.6068 24.5081 27.9159C25.6823 28.1361 26.9184 26.9469 27.6335 24.6631C28.3489 22.377 28.346 19.6308 27.7354 17.6061C28.7089 15.456 29.7988 13.6043 30.9616 12.1249C31.519 14.2399 32.5664 15.2138 33.6894 14.3755C34.8135 13.5375 35.7024 11.1179 36.0309 8.34348C37.2486 8.04626 38.4319 8.20115 39.5339 8.80196C39.1483 11.5715 39.3941 14.137 40.267 15.2364C41.1413 16.336 42.3999 15.664 43.4755 13.7627C44.2247 15.4914 44.8091 17.5613 45.2052 19.89C44.1013 21.6903 43.4014 24.3471 43.513 26.7415C43.6248 29.1358 44.5179 30.6039 45.7098 30.6882C45.551 33.4312 45.1934 36.2043 44.6509 38.897C43.4759 38.674 42.2409 39.8634 41.5259 42.1472C40.8102 44.4334 40.813 47.182 41.4236 49.2067C40.4501 51.3559 39.3603 53.2067 38.1978 54.6854C37.6404 52.5704 36.5927 51.5965 35.4688 52.4346C34.3447 53.2726 33.4558 55.6923 33.1281 58.4693C31.91 58.766 30.7263 58.6101 29.6243 58.0082C30.0107 55.2414 29.7641 52.6732 28.8922 51.574C28.0181 50.4743 26.7583 51.1461 25.6827 53.0473C24.9338 51.3186 24.3498 49.2487 23.9542 46.9203C25.0581 45.12 25.758 42.4633 25.646 40.0713C25.5342 37.6768 24.6415 36.2064 23.4488 36.1194ZM36.1699 39.0417C35.3828 40.3784 34.4606 41.0663 33.6057 40.9545C32.7511 40.8426 32.0339 39.9399 31.6122 38.445C31.1905 36.9501 31.0987 34.9855 31.3569 32.9833C31.6151 30.9811 32.2024 29.1053 32.9895 27.7686C33.7764 26.432 34.6988 25.744 35.5534 25.8558C36.4083 25.9677 37.1253 26.8704 37.5472 28.3651C37.9689 29.86 38.0607 31.8248 37.8025 33.827C37.5441 35.8292 36.9569 37.705 36.1699 39.0417Z"
            fill="#14151A" />
    </g>
    <defs>
        <clipPath id="clip0_2_4">
            <rect width="75" height="67" fill="white" />
        </clipPath>
    </defs>
</svg>